<svg width="222" height="34" viewBox="0 0 222 34" fill="none" xmlns="http://www.w3.org/2000/svg">
<path fill-rule="evenodd" clip-rule="evenodd" d="M37.9357 11.1026C37.9803 10.7552 38.0017 10.405 37.9997 10.0546C38.0024 9.69316 37.981 9.33198 37.9357 8.97357C37.6983 7.38949 36.9784 5.92387 35.8795 4.78796C35.2768 4.15089 34.5808 3.61488 33.8169 3.1994C33.3245 2.89442 32.7974 2.6531 32.2475 2.48093C30.8442 2.12479 29.4006 1.96515 27.9558 2.00634H26.8092L9.07867 2.0393H0.379938C0.174752 2.0393 0.00841584 2.21046 0.00841584 2.42161V3.54216C0.00794241 3.73979 0.156331 3.90401 0.34791 3.91788H0.591321C0.82192 3.9838 1.05252 3.9838 1.28953 3.9838C1.82316 3.99415 2.35481 4.05371 2.8781 4.16177C3.08554 4.20475 3.28466 4.2827 3.46741 4.39247C3.7388 4.63081 3.9013 4.97481 3.9158 5.34165C3.98942 5.94724 4.02366 6.55721 4.01829 7.1675V12.5528C4.01829 12.9087 4.01829 13.2712 4.01829 13.5942C4.01829 13.9765 4.01829 14.3391 4.01829 14.5961C4.05346 15.028 3.91712 15.456 3.64036 15.7826C3.32992 15.9454 2.9823 16.0184 2.63469 15.9935H2.50658C2.19911 15.9935 1.9493 15.9935 1.68667 15.9935C1.42404 15.9935 1.04611 15.9935 0.57851 16.0397H0.335099C0.229132 16.0521 0.133205 16.11 0.0709827 16.1992C0.0087605 16.2883 -0.0139637 16.4004 0.00841584 16.5077V17.6282C0.0110127 17.8282 0.160628 17.9936 0.354315 18.0105H0.591321C0.950031 18.0435 1.23188 18.0435 1.57778 18.0435H2.30801H2.90372H2.95497C3.32649 18.0435 3.6852 18.0765 3.86456 18.5181C3.91238 18.6351 3.93845 18.7603 3.94142 18.8872V18.9795C3.94142 19.3486 3.99907 19.7243 4.00548 20.1001C4.01188 20.4758 4.00548 20.7592 4.00548 21.0822V24.6087C4.00548 24.8591 4.00548 25.1162 4.00548 25.3799C4.03388 26.1577 4.02319 26.9365 3.97345 27.7133C3.94317 28.2909 3.71643 28.8393 3.3329 29.2623C2.91831 29.6322 2.38912 29.8379 1.8404 29.8423H1.50091H1.28953H0.853948C0.674593 29.8423 0.501643 29.8423 0.335099 29.8885H0.200582C0.0276325 29.8885 0.0276325 30.073 0.0276325 30.1389C0.00840287 30.2074 0.00188351 30.2789 0.00841584 30.3499V31.6154C0.00821569 31.6994 0.0404782 31.78 0.0980935 31.8395C0.219665 31.9372 0.374501 31.98 0.527265 31.9582H26.6747C27.2512 31.9582 27.9558 31.9582 28.5964 31.9582H28.8334C29.5291 31.9643 30.2244 31.9247 30.9152 31.8395C31.3781 31.7787 31.8348 31.675 32.2796 31.5297C32.8175 31.3446 33.3366 31.1062 33.8297 30.8179C34.5883 30.3892 35.2794 29.8447 35.8795 29.2029C36.9784 28.067 37.6983 26.6014 37.9357 25.0173C37.9803 24.6699 38.0017 24.3197 37.9997 23.9693C38.0027 23.6078 37.9813 23.2466 37.9357 22.8883C37.6051 20.7766 36.4474 18.8968 34.7329 17.6876L33.7849 16.9954L34.7329 16.3363C36.4571 15.1217 37.6163 13.2275 37.9357 11.1026ZM34.598 20.3901C35.4362 21.3722 35.9262 22.6177 35.988 23.9232C35.9372 25.2469 35.4465 26.5127 34.598 27.509C34.1071 28.1011 33.5197 28.6007 32.8621 28.9855C32.6709 29.0931 32.4742 29.1899 32.2728 29.2755C30.7739 29.9347 29.07 29.8951 27.4046 29.8556H26.2964H7.5538C7.11268 29.8538 6.69039 29.6714 6.38027 29.3485C6.07016 29.0257 5.89776 28.5891 5.90117 28.1352V18.907C5.90811 18.4415 6.27503 18.0669 6.72748 18.0633H14.7793C16.7458 18.0633 18.93 18.0633 21.0439 18.0633H26.4053H27.411C28.813 17.9579 30.2224 18.0802 31.5874 18.4259C32.7714 18.7392 33.8279 19.4317 34.6044 20.4033L34.598 20.3901ZM32.8941 15.0575C31.4272 15.9078 29.5696 15.9144 28.2116 15.9144C23.9519 15.9144 19.6858 15.9144 16.0411 15.9144H6.74661C6.28317 15.9144 5.90748 15.5278 5.90748 15.0509C5.90748 13.0273 5.90748 11.096 5.90748 9.37562V5.30206C5.90748 4.67955 6.39788 4.17491 7.00283 4.17491H16.9314C17.8026 4.17491 18.6865 4.17491 19.5449 4.17491H19.5769C20.9541 4.17491 22.5107 4.17491 24.0032 4.17491C24.7142 4.17491 25.4316 4.17491 26.1234 4.17491H26.1554C27.0266 4.17491 27.9233 4.14195 28.8073 4.17491C30.2614 4.23424 31.9268 4.37266 33.2271 5.2691C34.4351 6.06982 35.3395 7.27271 35.7894 8.67692C35.9226 9.12174 35.998 9.58276 36.0136 10.048V10.0875C35.9388 11.389 35.4401 12.6267 34.5979 13.6008C34.1171 14.1851 33.5404 14.6781 32.8941 15.0575Z" fill="#573BA3"/>
<path d="M59.0681 16.7797C60.9534 16.7797 62.4281 17.237 63.4921 18.1517C64.5748 19.0664 65.1161 20.2144 65.1161 21.5957C65.1161 23.145 64.5281 24.433 63.3521 25.4597C62.1761 26.4864 60.4308 26.9997 58.1161 26.9997H48.2041V26.1597C49.2868 26.1037 50.0054 25.8704 50.3601 25.4597C50.7334 25.0304 50.9201 24.2277 50.9201 23.0517V11.3477C50.9201 10.153 50.7334 9.3504 50.3601 8.93973C50.0054 8.52906 49.2868 8.29573 48.2041 8.23973V7.39973H57.8641C59.8801 7.39973 61.4388 7.82906 62.5401 8.68773C63.6414 9.5464 64.1921 10.713 64.1921 12.1877C64.1921 13.401 63.7161 14.4277 62.7641 15.2677C61.8308 16.1077 60.5894 16.5557 59.0401 16.6117H58.0601V16.7797H59.0681ZM56.8281 8.46373H54.0281V16.1917H57.0801C58.3121 16.1917 59.2641 15.865 59.9361 15.2117C60.6268 14.5397 60.9721 13.5877 60.9721 12.3557C60.9721 10.8997 60.6268 9.89173 59.9361 9.33173C59.2454 8.75306 58.2094 8.46373 56.8281 8.46373ZM57.6121 25.9357C59.0121 25.9357 60.0668 25.553 60.7761 24.7877C61.4854 24.0224 61.8401 22.9677 61.8401 21.6237C61.8401 20.261 61.4481 19.197 60.6641 18.4317C59.8801 17.6477 58.7881 17.2557 57.3881 17.2557H54.0281V24.2277C54.0281 24.7877 54.1588 25.217 54.4201 25.5157C54.6814 25.7957 55.1294 25.9357 55.7641 25.9357H57.6121ZM78.9169 25.2917C77.6102 26.6544 75.9396 27.3357 73.9049 27.3357C71.8702 27.3357 70.1902 26.6544 68.8649 25.2917C67.5582 23.929 66.9049 22.193 66.9049 20.0837C66.9049 17.993 67.5582 16.2664 68.8649 14.9037C70.1902 13.5224 71.8702 12.8317 73.9049 12.8317C75.9396 12.8317 77.6102 13.5224 78.9169 14.9037C80.2422 16.2664 80.9049 17.993 80.9049 20.0837C80.9049 22.193 80.2422 23.929 78.9169 25.2917ZM70.1809 20.0837C70.1809 24.0597 71.4222 26.0477 73.9049 26.0477C76.3876 26.0477 77.6289 24.0597 77.6289 20.0837C77.6289 16.1077 76.3876 14.1197 73.9049 14.1197C71.4222 14.1197 70.1809 16.1077 70.1809 20.0837ZM94.8039 25.2917C93.4973 26.6544 91.8266 27.3357 89.7919 27.3357C87.7573 27.3357 86.0773 26.6544 84.7519 25.2917C83.4453 23.929 82.7919 22.193 82.7919 20.0837C82.7919 17.993 83.4453 16.2664 84.7519 14.9037C86.0773 13.5224 87.7573 12.8317 89.7919 12.8317C91.8266 12.8317 93.4973 13.5224 94.8039 14.9037C96.1293 16.2664 96.7919 17.993 96.7919 20.0837C96.7919 22.193 96.1293 23.929 94.8039 25.2917ZM86.0679 20.0837C86.0679 24.0597 87.3093 26.0477 89.7919 26.0477C92.2746 26.0477 93.5159 24.0597 93.5159 20.0837C93.5159 16.1077 92.2746 14.1197 89.7919 14.1197C87.3093 14.1197 86.0679 16.1077 86.0679 20.0837ZM97.9855 26.9997V26.1877C98.9375 26.0757 99.5535 25.9077 99.8335 25.6837C100.113 25.441 100.253 24.9557 100.253 24.2277V8.96773C100.253 8.40773 100.169 8.02506 100.001 7.81973C99.8335 7.6144 99.5162 7.51173 99.0495 7.51173C98.7508 7.51173 98.4148 7.53973 98.0415 7.59573V6.83973L102.269 5.71973H103.081V24.2277C103.081 24.937 103.203 25.413 103.445 25.6557C103.688 25.8984 104.173 26.0757 104.901 26.1877V26.9997H97.9855ZM109.661 26.9997L103.501 19.7477L107.589 16.4717C108.429 15.7624 108.849 15.193 108.849 14.7637C108.849 14.465 108.737 14.269 108.513 14.1757C108.289 14.0637 107.916 14.0077 107.393 14.0077V13.1677H113.189V14.0077C112.219 14.1384 111.08 14.7544 109.773 15.8557L106.469 18.5717L106.497 18.7117L111.145 24.0877C111.668 24.7037 112.125 25.1704 112.517 25.4877C112.928 25.805 113.432 26.0384 114.029 26.1877V26.9997H109.661ZM119.379 27.3357C117.513 27.3357 115.973 26.8597 114.759 25.9077V22.4917H115.795C116.057 23.649 116.551 24.5264 117.279 25.1237C118.007 25.721 118.866 26.0197 119.855 26.0197C120.639 26.0197 121.265 25.833 121.731 25.4597C122.217 25.0864 122.459 24.573 122.459 23.9197C122.459 23.3784 122.319 22.9397 122.039 22.6037C121.759 22.2677 121.302 21.997 120.667 21.7917L118.091 20.8957C115.926 20.1864 114.843 18.8984 114.843 17.0317C114.843 15.7624 115.329 14.745 116.299 13.9797C117.27 13.2144 118.521 12.8317 120.051 12.8317C121.526 12.8317 122.898 13.1304 124.167 13.7277V16.8637H123.159C122.954 16.0424 122.534 15.3704 121.899 14.8477C121.283 14.325 120.518 14.0637 119.603 14.0637C118.875 14.0637 118.287 14.2317 117.839 14.5677C117.41 14.9037 117.195 15.3424 117.195 15.8837C117.195 16.9104 117.765 17.629 118.903 18.0397L121.871 19.1037C123.813 19.813 124.783 21.0824 124.783 22.9117C124.783 24.2557 124.289 25.329 123.299 26.1317C122.31 26.9344 121.003 27.3357 119.379 27.3357ZM126.013 26.9997V26.1877C126.947 26.0944 127.553 25.9264 127.833 25.6837C128.132 25.441 128.281 24.9557 128.281 24.2277V8.96773C128.281 8.38906 128.197 8.0064 128.029 7.81973C127.861 7.6144 127.525 7.51173 127.021 7.51173C126.76 7.51173 126.443 7.53973 126.069 7.59573V6.83973L130.297 5.71973H131.109V12.4677C131.109 14.0357 130.932 15.3797 130.577 16.4997L130.717 16.5557C131.091 15.3797 131.697 14.465 132.537 13.8117C133.396 13.1584 134.432 12.8317 135.645 12.8317C136.971 12.8317 138.016 13.2237 138.781 14.0077C139.565 14.7917 139.957 16.0144 139.957 17.6757V24.1997C139.957 24.9464 140.097 25.441 140.377 25.6837C140.676 25.9077 141.292 26.0757 142.225 26.1877V26.9997H135.365V26.1877C136.056 26.057 136.523 25.8797 136.765 25.6557C137.008 25.413 137.129 25.0304 137.129 24.5077V18.0957C137.129 17.0317 136.877 16.2384 136.373 15.7157C135.869 15.1744 135.188 14.9037 134.329 14.9037C132.836 14.9037 131.763 15.557 131.109 16.8637V24.2277C131.109 24.937 131.231 25.413 131.473 25.6557C131.716 25.8984 132.201 26.0757 132.929 26.1877V26.9997H126.013ZM155.153 25.2917C153.846 26.6544 152.175 27.3357 150.141 27.3357C148.106 27.3357 146.426 26.6544 145.101 25.2917C143.794 23.929 143.141 22.193 143.141 20.0837C143.141 17.993 143.794 16.2664 145.101 14.9037C146.426 13.5224 148.106 12.8317 150.141 12.8317C152.175 12.8317 153.846 13.5224 155.153 14.9037C156.478 16.2664 157.141 17.993 157.141 20.0837C157.141 22.193 156.478 23.929 155.153 25.2917ZM146.417 20.0837C146.417 24.0597 147.658 26.0477 150.141 26.0477C152.623 26.0477 153.865 24.0597 153.865 20.0837C153.865 16.1077 152.623 14.1197 150.141 14.1197C147.658 14.1197 146.417 16.1077 146.417 20.0837ZM158.278 33.2997V32.4877C159.211 32.3944 159.818 32.2264 160.098 31.9837C160.396 31.741 160.546 31.2557 160.546 30.5277V16.4157C160.546 15.9677 160.443 15.6504 160.238 15.4637C160.051 15.2584 159.734 15.1557 159.286 15.1557C159.062 15.1557 158.67 15.1744 158.11 15.2117V14.3997L162.226 13.1677H163.066V14.7637C163.066 15.137 162.982 15.7157 162.814 16.4997L162.954 16.5277C163.327 15.389 163.934 14.493 164.774 13.8397C165.632 13.1677 166.622 12.8317 167.742 12.8317C169.384 12.8317 170.691 13.4197 171.662 14.5957C172.651 15.753 173.146 17.3024 173.146 19.2437C173.146 21.6144 172.483 23.5557 171.158 25.0677C169.851 26.5797 168.18 27.3357 166.146 27.3357C165.1 27.3357 164.176 27.093 163.374 26.6077V30.4997C163.374 31.265 163.56 31.7597 163.934 31.9837C164.326 32.2264 165.1 32.3944 166.258 32.4877V33.2997H158.278ZM166.146 26.1597C167.359 26.1597 168.33 25.637 169.058 24.5917C169.786 23.5277 170.15 22.0904 170.15 20.2797C170.15 18.637 169.832 17.377 169.198 16.4997C168.582 15.6037 167.676 15.1557 166.482 15.1557C165.026 15.1557 163.99 15.7064 163.374 16.8077V24.9277C164.139 25.749 165.063 26.1597 166.146 26.1597ZM178.513 26.5797C178.102 27.009 177.598 27.2237 177.001 27.2237C176.404 27.2237 175.89 27.009 175.461 26.5797C175.032 26.1504 174.817 25.637 174.817 25.0397C174.817 24.4424 175.032 23.9384 175.461 23.5277C175.89 23.0984 176.404 22.8837 177.001 22.8837C177.58 22.8837 178.084 23.0984 178.513 23.5277C178.942 23.9384 179.157 24.4424 179.157 25.0397C179.157 25.637 178.942 26.1504 178.513 26.5797ZM192.833 25.2917C191.527 26.6544 189.856 27.3357 187.821 27.3357C185.787 27.3357 184.107 26.6544 182.781 25.2917C181.475 23.929 180.821 22.193 180.821 20.0837C180.821 17.993 181.475 16.2664 182.781 14.9037C184.107 13.5224 185.787 12.8317 187.821 12.8317C189.856 12.8317 191.527 13.5224 192.833 14.9037C194.159 16.2664 194.821 17.993 194.821 20.0837C194.821 22.193 194.159 23.929 192.833 25.2917ZM184.097 20.0837C184.097 24.0597 185.339 26.0477 187.821 26.0477C190.304 26.0477 191.545 24.0597 191.545 20.0837C191.545 16.1077 190.304 14.1197 187.821 14.1197C185.339 14.1197 184.097 16.1077 184.097 20.0837ZM205.394 12.8317C205.749 12.8317 206.029 12.869 206.234 12.9437V16.1357H205.702C205.329 15.949 204.918 15.8557 204.47 15.8557C203.612 15.8557 202.884 16.117 202.286 16.6397C201.708 17.1437 201.418 17.965 201.418 19.1037V24.1997C201.418 24.965 201.605 25.469 201.978 25.7117C202.37 25.9357 203.145 26.0944 204.302 26.1877V26.9997H196.322V26.1877C197.256 26.0944 197.862 25.9264 198.142 25.6837C198.441 25.441 198.59 24.9557 198.59 24.2277V16.4157C198.59 15.9677 198.488 15.6504 198.282 15.4637C198.096 15.2584 197.76 15.1557 197.274 15.1557C197.088 15.1557 196.714 15.1744 196.154 15.2117V14.3997L200.27 13.1677H201.11V15.4357C201.11 16.6117 201.073 17.629 200.998 18.4877H201.194L201.446 16.8637C201.652 15.5384 202.128 14.5397 202.874 13.8677C203.621 13.177 204.461 12.8317 205.394 12.8317ZM219.752 14.7357C218.949 14.7357 218.091 14.521 217.176 14.0917L217.064 14.2597C218.539 14.7637 219.276 15.8837 219.276 17.6197C219.276 19.0197 218.735 20.149 217.652 21.0077C216.588 21.8664 215.207 22.2957 213.508 22.2957C212.78 22.2957 212.061 22.2024 211.352 22.0157C210.363 22.1277 209.868 22.5664 209.868 23.3317C209.868 24.1157 210.549 24.5544 211.912 24.6477L216.42 24.8997C219.351 25.049 220.816 26.2064 220.816 28.3717C220.816 29.809 220.181 31.041 218.912 32.0677C217.643 33.113 215.711 33.6357 213.116 33.6357C211.249 33.6357 209.765 33.3184 208.664 32.6837C207.563 32.0677 207.012 31.2837 207.012 30.3317C207.012 28.8944 207.983 27.9237 209.924 27.4197V27.2517C209.233 27.0464 208.692 26.701 208.3 26.2157C207.927 25.7304 207.74 25.1704 207.74 24.5357C207.74 23.9384 207.945 23.3877 208.356 22.8837C208.767 22.361 209.364 21.969 210.148 21.7077V21.5117C209.401 21.1197 208.813 20.5877 208.384 19.9157C207.955 19.225 207.74 18.4504 207.74 17.5917C207.74 16.1917 208.281 15.053 209.364 14.1757C210.447 13.2797 211.828 12.8317 213.508 12.8317C214.348 12.8317 215.123 12.9437 215.832 13.1677H220.816V14.7357H219.752ZM211.464 20.3917C211.968 20.989 212.649 21.2877 213.508 21.2877C214.367 21.2877 215.048 20.989 215.552 20.3917C216.056 19.7757 216.308 18.8424 216.308 17.5917C216.308 16.341 216.056 15.4077 215.552 14.7917C215.048 14.157 214.367 13.8397 213.508 13.8397C212.649 13.8397 211.968 14.157 211.464 14.7917C210.96 15.4077 210.708 16.341 210.708 17.5917C210.708 18.8424 210.96 19.7757 211.464 20.3917ZM215.832 27.6717L211.1 27.4477C210.988 27.4477 210.904 27.4384 210.848 27.4197C209.952 27.8677 209.504 28.5584 209.504 29.4917C209.504 30.3504 209.943 31.0224 210.82 31.5077C211.697 32.0117 212.92 32.2637 214.488 32.2637C215.888 32.2637 216.971 32.0397 217.736 31.5917C218.501 31.1437 218.884 30.537 218.884 29.7717C218.884 28.4277 217.867 27.7277 215.832 27.6717Z" fill="#2B0F42"/>
</svg>
